<svg xmlns:xlink="http://www.w3.org/1999/xlink" xmlns="http://www.w3.org/2000/svg" viewBox="211.29557321529137 158.529623022524 89.40884566591194 89.40884566591194" width="180"  height="180" ><g xmlns="http://www.w3.org/2000/svg" transform="matrix(0.6827324628829956, 0, 0, 0.6827324628829956, 78.70579528808594, 100.91146087646484)" fill="#9B2335"><path id="_Ji_yEikHupDJMeqOYlAue" d="M497 430.182c0 37.271-30.215 67.486-67.486 67.486H70.486C33.215 497.668 3 467.452 3 430.182V71.153  C3 33.882 33.215 3.667 70.486 3.667h359.027C466.785 3.667 497 33.882 497 71.153V430.182z" stroke="none" fill="#9B2335" transform="matrix(0.2266392856836319, 0, 0, 0.2266392856836319, 203.0195770263672, 93.38477325439453)" stroke-width="1"></path><path id="_zz--N4Je8SdkrRsO3K8g4" stroke="none" fill="#9B2335" transform="matrix(0.4042358696460724, 0, 0, 0.4042358696460724, 223.96275329589844, 114.30049133300781)" stroke-width="1" data-type="circle" data-cx="88.385" data-cy="88.385" data-r="88.385" d="M88.385 88.385m-88.385 0a88.385 88.385 0 1 0 176.77 0a88.385 88.385 0 1 0 -176.77 0"></path><path id="_Lm0jiTWki03NjGN29LYS3" d="M72.2 2.5H27.8C13.8 2.5 2.5 13.8 2.5 27.8v44.4c0 13.9 11.3 25.3 25.3 25.3h44.4c13.9 0 25.3-11.3 25.3-25.3V27.8     C97.5 13.8 86.2 2.5 72.2 2.5z M87.9 72.2c0 8.7-7.1 15.7-15.7 15.7H27.8c-8.7 0-15.7-7.1-15.7-15.7V27.8     c0-8.7 7.1-15.7 15.7-15.7h44.4c8.7 0 15.7 7.1 15.7 15.7V72.2z" stroke="none" fill="#6B5B95" transform="matrix(1.3784985542297363, 0, 0, 1.3784985542297363, 190.7583465576172, 80.94721984863281)" stroke-width="1"></path><path id="_HSiXYFaHZJebxTYWyCOI0" d="M50 20.4c-16.3 0-29.6 13.3-29.6 29.6S33.7 79.6 50 79.6S79.6 66.3 79.6 50S66.3 20.4 50 20.4z M50 70c-11 0-20-9-20-20     s9-20 20-20s20 9 20 20S61 70 50 70z" stroke="none" fill="#000000" transform="matrix(1.3784985542297363, 0, 0, 1.3784985542297363, 190.89698791503906, 81.08584594726562)" stroke-width="1"></path><path id="_SQu8ht27BybAFg1m7iBSh" d="M50 36.5c-7.4 0-13.5 6-13.5 13.5c0 2.6 2.1 4.8 4.8 4.8c2.6 0 4.8-2.1 4.8-4.8c0-2.1 1.7-3.9 3.9-3.9     c2.6 0 4.8-2.1 4.8-4.8C54.8 38.7 52.6 36.5 50 36.5z" stroke="none" fill="#000000" transform="matrix(1.3784985542297363, 0, 0, 1.3784985542297363, 190.07037353515625, 80.2593994140625)" stroke-width="1"></path></g></svg>